<svg id="Layer_1" data-name="Layer 1" xmlns="http://www.w3.org/2000/svg" viewBox="0 0 177.16 77.4"><defs><style>.cls-1{fill:none;stroke:#024040;stroke-miterlimit:10;}</style></defs><title>experience</title><path class="cls-1" d="M852.47,511.7v4.45H848.2a2.49,2.49,0,0,0-1.24.23.88.88,0,0,0-.36.79.85.85,0,0,0,.37.83,3.79,3.79,0,0,0,1.52.2h4.4v5.71h-5.15a8.54,8.54,0,0,1-5.54-1.57,5.55,5.55,0,0,1-1.92-4.55V510a5.59,5.59,0,0,1,1.82-4.45,7.49,7.49,0,0,1,5.1-1.58h5.69v5.74h-4.18c-1.13,0-1.69.33-1.69,1a.84.84,0,0,0,.4.81,3.22,3.22,0,0,0,1.44.23Z" transform="translate(-839.78 -503.42)"/><path class="cls-1" d="M872.16,523.91h-6v-8.24c0-.84-.39-1.26-1.15-1.26s-1.13.42-1.13,1.26v8.24h-6v-8.14a6.32,6.32,0,0,1,2.08-4.81,7.72,7.72,0,0,1,10.61.31,7,7,0,0,1,1.63,4.94Z" transform="translate(-839.78 -503.42)"/><path class="cls-1" d="M882.69,503.92v5.59h2.71v5.79h-2.71a3.56,3.56,0,0,0,.61,2.4,2.93,2.93,0,0,0,2.21.66v5.76h-.69a8.93,8.93,0,0,1-3.86-.86,7.63,7.63,0,0,1-2.91-2.35,8.31,8.31,0,0,1-1.39-5v-12Z" transform="translate(-839.78 -503.42)"/><path class="cls-1" d="M905.8,517.5h-9.13a3.71,3.71,0,0,1-.21-1.16,3.82,3.82,0,0,1,.29-1.44h3.06a1.84,1.84,0,0,0-2-1.62,2.25,2.25,0,0,0-1.84.87,3.42,3.42,0,0,0-.71,2.23,3.66,3.66,0,0,0,.68,2.3,2.17,2.17,0,0,0,1.8.88,2.48,2.48,0,0,0,1.74-.82l3.43,3.75a9,9,0,0,1-5.33,1.72,8.66,8.66,0,0,1-6-2.19,7,7,0,0,1-2.43-5.4,7,7,0,0,1,2.45-5.42,8.67,8.67,0,0,1,6-2.21,8.4,8.4,0,0,1,5.87,2.16,6.89,6.89,0,0,1,2.38,5.32C905.87,516.69,905.85,517,905.8,517.5Z" transform="translate(-839.78 -503.42)"/><path class="cls-1" d="M918.77,509.16V515a2.64,2.64,0,0,0-1.15-.32c-1.1,0-1.64.76-1.64,2.28v6.93h-6v-8a6.79,6.79,0,0,1,1.9-5,6.93,6.93,0,0,1,5.08-1.88A13.28,13.28,0,0,1,918.77,509.16Z" transform="translate(-839.78 -503.42)"/><path class="cls-1" d="M852.47,562.7v4.45H848.2a2.49,2.49,0,0,0-1.24.23.88.88,0,0,0-.36.79.85.85,0,0,0,.37.83,3.79,3.79,0,0,0,1.52.2h4.4v5.71h-5.15a8.54,8.54,0,0,1-5.54-1.57,5.55,5.55,0,0,1-1.92-4.55V561a5.59,5.59,0,0,1,1.82-4.45,7.49,7.49,0,0,1,5.1-1.58h5.69v5.74h-4.18c-1.13,0-1.69.33-1.69,1a.84.84,0,0,0,.4.81,3.22,3.22,0,0,0,1.44.23Z" transform="translate(-839.78 -503.42)"/><path class="cls-1" d="M865.94,560.31h6v3.21a4.82,4.82,0,0,1-.44,2.21,3.92,3.92,0,0,1-1.53,1.49,4.11,4.11,0,0,1,1.53,1.48,4.44,4.44,0,0,1,.44,2.11v4.1h-6V570.5c0-1-.38-1.51-1.16-1.51s-1.13.44-1.13,1.31v4.61h-6V571a4,4,0,0,1,.54-2.2,5.05,5.05,0,0,1,1.88-1.6,5.24,5.24,0,0,1-1.88-1.67,4.2,4.2,0,0,1-.54-2.24v-3h6V564a1.37,1.37,0,0,0,.33.94,1,1,0,0,0,.82.36c.76,0,1.14-.43,1.14-1.3Z" transform="translate(-839.78 -503.42)"/><path class="cls-1" d="M882.58,580.32h-6V568.13a7.78,7.78,0,0,1,1.93-5.46,8.05,8.05,0,0,1,2.83-1.94,9,9,0,0,1,3.52-.72,8.79,8.79,0,0,1,6.06,2.2,6.93,6.93,0,0,1,2.47,5.39,7.05,7.05,0,0,1-2.45,5.36,8.27,8.27,0,0,1-5.8,2.26c-.37,0-.91,0-1.61-.1v-6a2.48,2.48,0,0,0,1.48.54,2.24,2.24,0,0,0,1.6-.63,2,2,0,0,0,.67-1.49,1.88,1.88,0,0,0-.69-1.47,2.42,2.42,0,0,0-1.66-.61c-1.55,0-2.32,1-2.32,2.91Z" transform="translate(-839.78 -503.42)"/><path class="cls-1" d="M913.44,568.5H904.3a3.71,3.71,0,0,1-.21-1.16,3.65,3.65,0,0,1,.3-1.44h3.06a1.85,1.85,0,0,0-2-1.62,2.25,2.25,0,0,0-1.83.87,3.37,3.37,0,0,0-.71,2.23,3.6,3.6,0,0,0,.68,2.3,2.17,2.17,0,0,0,1.8.88,2.48,2.48,0,0,0,1.74-.82l3.43,3.75a9,9,0,0,1-5.33,1.72,8.64,8.64,0,0,1-6-2.19,6.93,6.93,0,0,1-2.44-5.4,7,7,0,0,1,2.46-5.42,8.67,8.67,0,0,1,6-2.21,8.42,8.42,0,0,1,5.88,2.16,6.91,6.91,0,0,1,2.37,5.32C913.5,567.69,913.48,568,913.44,568.5Z" transform="translate(-839.78 -503.42)"/><path class="cls-1" d="M926.4,560.16V566a2.6,2.6,0,0,0-1.14-.32q-1.65,0-1.65,2.28v6.93h-6v-8a6.79,6.79,0,0,1,1.9-5,6.92,6.92,0,0,1,5.07-1.88A13,13,0,0,1,926.4,560.16Z" transform="translate(-839.78 -503.42)"/><path class="cls-1" d="M935.85,560.31v14.6h-6v-14.6Zm-3-6.52a3.1,3.1,0,0,1,2.12.78,2.43,2.43,0,0,1,0,3.73,3.58,3.58,0,0,1-4.33,0,2.35,2.35,0,0,1-.85-1.87,2.41,2.41,0,0,1,.89-1.86A3.14,3.14,0,0,1,932.85,553.79Z" transform="translate(-839.78 -503.42)"/><path class="cls-1" d="M956.84,568.5H947.7a3.71,3.71,0,0,1-.21-1.16,3.82,3.82,0,0,1,.29-1.44h3.06a1.83,1.83,0,0,0-2-1.62,2.26,2.26,0,0,0-1.84.87,3.42,3.42,0,0,0-.71,2.23,3.6,3.6,0,0,0,.69,2.3,2.14,2.14,0,0,0,1.79.88,2.45,2.45,0,0,0,1.74-.82l3.44,3.75a9,9,0,0,1-5.34,1.72,8.66,8.66,0,0,1-6-2.19,7.21,7.21,0,0,1,0-10.82,8.67,8.67,0,0,1,6-2.21,8.4,8.4,0,0,1,5.87,2.16,6.89,6.89,0,0,1,2.38,5.32C956.9,567.69,956.88,568,956.84,568.5Z" transform="translate(-839.78 -503.42)"/><path class="cls-1" d="M975.31,574.91h-6v-8.24q0-1.26-1.14-1.26c-.76,0-1.13.42-1.13,1.26v8.24h-6v-8.14a6.35,6.35,0,0,1,2.08-4.81,7.73,7.73,0,0,1,10.62.31,7.06,7.06,0,0,1,1.63,4.94Z" transform="translate(-839.78 -503.42)"/><path class="cls-1" d="M990.33,568.19l6-.21a7.44,7.44,0,0,1-2.59,5.2,8.36,8.36,0,0,1-5.69,2,8.56,8.56,0,0,1-6-2.24,7.21,7.21,0,0,1-2.44-5.49,6.81,6.81,0,0,1,2.47-5.29A8.54,8.54,0,0,1,988,560a8.65,8.65,0,0,1,5.32,1.73,7.27,7.27,0,0,1,2.87,4.41l-6.11.2a2.51,2.51,0,0,0-2-.93,2.37,2.37,0,0,0-1.69.61,2,2,0,0,0-.66,1.55,2.07,2.07,0,0,0,.7,1.6,2.49,2.49,0,0,0,1.75.64A2.23,2.23,0,0,0,990.33,568.19Z" transform="translate(-839.78 -503.42)"/><path class="cls-1" d="M1016.38,568.5h-9.14a3.71,3.71,0,0,1-.21-1.16,3.82,3.82,0,0,1,.29-1.44h3.06a1.83,1.83,0,0,0-2-1.62,2.26,2.26,0,0,0-1.84.87,3.42,3.42,0,0,0-.71,2.23,3.6,3.6,0,0,0,.69,2.3,2.14,2.14,0,0,0,1.79.88,2.45,2.45,0,0,0,1.74-.82l3.44,3.75a9,9,0,0,1-5.34,1.72,8.66,8.66,0,0,1-6-2.19,7.21,7.21,0,0,1,0-10.82,8.67,8.67,0,0,1,6-2.21,8.44,8.44,0,0,1,5.88,2.16,6.91,6.91,0,0,1,2.37,5.32C1016.44,567.69,1016.42,568,1016.38,568.5Z" transform="translate(-839.78 -503.42)"/></svg>