<svg id="Layer_1" data-name="Layer 1" xmlns="http://www.w3.org/2000/svg" viewBox="0 0 89.58 89.62"><defs><style>.cls-1{fill:none;stroke:#fcd12c;stroke-miterlimit:10;}</style></defs><title>flecha</title><path class="cls-1" d="M914.33,585v-73.8h51.52a2.57,2.57,0,0,1-.27.36c-2.25,2.26-4.51,4.53-6.78,6.78a.9.9,0,0,1-.58.19c-4.12,0-8.24,0-12.36,0H922c-.19,0-.29.07-.28.26V577c0,.6,0,.6.58.6h58c.49,0,.49,0,.49-.5v-35.9a1.1,1.1,0,0,1,.36-.87l6.59-6.58a4.21,4.21,0,0,1,.39-.32V585Z" transform="translate(-913.83 -495.85)"/><path class="cls-1" d="M995.51,508.94c-.16.14-.25.2-.33.28q-9.49,9.49-19,19-8.21,8.19-16.39,16.39l-9.35,9.35c-.33.33-.34.33-.68,0-1.48-1.47-2.95-2.95-4.43-4.43-.36-.36-.36-.36,0-.73q5.86-5.87,11.74-11.74l17.34-17.34,15.61-15.6c.07-.07.13-.15.27-.31-.24,0-.39-.06-.55-.06H959.16c-.52,0-.52,0-.52-.53q0-3.23,0-6.44c0-.13,0-.25,0-.39h44.25v43.92h-6.76c-.6,0-.6,0-.6-.59V509.53C995.55,509.36,995.53,509.2,995.51,508.94Z" transform="translate(-913.83 -495.85)"/></svg>