<svg id="Layer_1" data-name="Layer 1" xmlns="http://www.w3.org/2000/svg" viewBox="0 0 235.62 105.63"><defs><style>.cls-1{fill:#004040;stroke:#004040;stroke-miterlimit:10;}</style></defs><title>jonathantitle</title><path class="cls-1" d="M564.39,335.32v22.47a12.29,12.29,0,0,1-2.88,8.38,9.24,9.24,0,0,1-7.3,3.31,10.21,10.21,0,0,1-3-.56v-9.6a3.3,3.3,0,0,0,1.35.32q2,0,2-3.15V335.32Z" transform="translate(-550.68 -334.82)"/><path class="cls-1" d="M580.94,343.8a12.09,12.09,0,0,1,8.88,3.72,12.63,12.63,0,0,1-.05,17.91,12.88,12.88,0,0,1-18.1,0,12.19,12.19,0,0,1-3.76-9,12,12,0,0,1,3.76-9A12.75,12.75,0,0,1,580.94,343.8Zm-.24,9a3.31,3.31,0,0,0-2.49,1.06,3.77,3.77,0,0,0,0,5.19,3.43,3.43,0,0,0,5,0,3.77,3.77,0,0,0,0-5.19A3.34,3.34,0,0,0,580.7,352.81Z" transform="translate(-550.68 -334.82)"/><path class="cls-1" d="M619,368.65H609.9V354.9c0-1.39-.58-2.09-1.73-2.09s-1.71.7-1.71,2.09v13.75h-9.13V355.08a11.12,11.12,0,0,1,3.14-8,11,11,0,0,1,16.09.52q2.48,3,2.47,8.23Z" transform="translate(-550.68 -334.82)"/><path class="cls-1" d="M637.88,359.52V369a12.11,12.11,0,0,1-2,.19,12.5,12.5,0,0,1-9.16-3.61,12.73,12.73,0,0,1,9-21.73q5.91,0,9.32,3.46t3.4,9.43v11.94h-9.13V357.37a4.7,4.7,0,0,0-.94-3.08,3.09,3.09,0,0,0-2.52-1.14,3.6,3.6,0,0,0-2.59,6,3.22,3.22,0,0,0,2.42,1A4.2,4.2,0,0,0,637.88,359.52Z" transform="translate(-550.68 -334.82)"/><path class="cls-1" d="M661.88,335.32v9.33H666v9.64h-4.1c0,1.94.3,3.28.91,4s1.73,1.1,3.36,1.1V369l-1,0a12.41,12.41,0,0,1-5.85-1.44,11.92,11.92,0,0,1-4.41-3.91,14.82,14.82,0,0,1-2.09-8.35v-20Z" transform="translate(-550.68 -334.82)"/><path class="cls-1" d="M679.6,335.32v10.19a7.83,7.83,0,0,1,4.64-1.69,6.83,6.83,0,0,1,5.58,2.54,10.59,10.59,0,0,1,2.06,6.86v15.43h-9.13V355.78a4.5,4.5,0,0,0-.33-2.1,1.4,1.4,0,0,0-1.28-.53c-1,0-1.54.75-1.54,2.27v13.23h-9.13V335.32Z" transform="translate(-550.68 -334.82)"/><path class="cls-1" d="M710.73,359.52V369a12,12,0,0,1-2.05.19,12.51,12.51,0,0,1-9.16-3.61,12.73,12.73,0,0,1,9-21.73q5.9,0,9.31,3.46t3.41,9.43v11.94h-9.14V357.37a4.7,4.7,0,0,0-.94-3.08,3.08,3.08,0,0,0-2.52-1.14,3.6,3.6,0,0,0-2.59,6,3.22,3.22,0,0,0,2.42,1A4.2,4.2,0,0,0,710.73,359.52Z" transform="translate(-550.68 -334.82)"/><path class="cls-1" d="M748.3,368.65h-9.13V354.9c0-1.39-.58-2.09-1.73-2.09s-1.71.7-1.71,2.09v13.75H726.6V355.08a11.08,11.08,0,0,1,3.15-8,11,11,0,0,1,16.09.52q2.46,3,2.46,8.23Z" transform="translate(-550.68 -334.82)"/><path class="cls-1" d="M554.19,428.65v-24a10.1,10.1,0,0,1,2.71-7.3,9.28,9.28,0,0,1,7-2.84,8.69,8.69,0,0,1,7.88,4.72,11,11,0,0,1,3.62-3.63,9.6,9.6,0,0,1,4.76-1.09,8.5,8.5,0,0,1,6.88,2.84c1.6,1.88,2.39,4.6,2.39,8.15v23.17h-9.91V407a5.82,5.82,0,0,0-.25-2.14,1,1,0,0,0-1-.52q-1.47,0-1.47,2.49v21.85h-9.91V407a5.44,5.44,0,0,0-.27-2.12,1.06,1.06,0,0,0-1.05-.54c-1,0-1.46.89-1.46,2.66v21.68Z" transform="translate(-550.68 -334.82)"/><path class="cls-1" d="M606.33,403.8a12.09,12.09,0,0,1,8.88,3.72,12.63,12.63,0,0,1-.05,17.91,12.88,12.88,0,0,1-18.1,0,12.19,12.19,0,0,1-3.76-9,12,12,0,0,1,3.76-9A12.76,12.76,0,0,1,606.33,403.8Zm-.24,9a3.32,3.32,0,0,0-2.49,1.07,3.62,3.62,0,0,0-1,2.6,3.57,3.57,0,0,0,1,2.58,3.41,3.41,0,0,0,5,0,3.76,3.76,0,0,0,0-5.18A3.35,3.35,0,0,0,606.09,412.8Z" transform="translate(-550.68 -334.82)"/><path class="cls-1" d="M644.42,428.65h-9.13V414.9c0-1.39-.58-2.1-1.73-2.1s-1.71.71-1.71,2.1v13.75h-9.13V415.08a11.08,11.08,0,0,1,3.15-8,11,11,0,0,1,16.08.52q2.47,3,2.47,8.23Z" transform="translate(-550.68 -334.82)"/><path class="cls-1" d="M663.27,419.52V429a12.11,12.11,0,0,1-2,.19,12.5,12.5,0,0,1-9.16-3.61,12.73,12.73,0,0,1,9-21.73q5.91,0,9.32,3.46t3.4,9.43v11.94h-9.13V417.37a4.7,4.7,0,0,0-.94-3.08,3.09,3.09,0,0,0-2.52-1.14,3.6,3.6,0,0,0-2.59,6,3.22,3.22,0,0,0,2.42,1A4.2,4.2,0,0,0,663.27,419.52Z" transform="translate(-550.68 -334.82)"/><path class="cls-1" d="M692.13,418.62V427a10.9,10.9,0,0,1-3.79.73,9.74,9.74,0,0,1-7.48-3.34,11.69,11.69,0,0,1-3.07-8.18,11.85,11.85,0,0,1,3.69-8.82,12.5,12.5,0,0,1,9.06-3.58,13.58,13.58,0,0,1,5.47,1.14,10.26,10.26,0,0,1,4.1,3.08q2.49,3.19,2.49,9.28v8a15.11,15.11,0,0,1-3.7,10.59,12.42,12.42,0,0,1-9.63,4.06,15.36,15.36,0,0,1-4.57-.9v-8.3a7.49,7.49,0,0,0,3.62,1,4.69,4.69,0,0,0,3.81-1.63,7.14,7.14,0,0,0,1.34-4.65V416.3c0-2.56-1-3.84-3.1-3.84a3.12,3.12,0,0,0-2.31,1,3.23,3.23,0,0,0-1,2.33,3.11,3.11,0,0,0,.94,2.32,3.19,3.19,0,0,0,2.33.92A3.93,3.93,0,0,0,692.13,418.62Z" transform="translate(-550.68 -334.82)"/><path class="cls-1" d="M717.1,395.32v10.19a7.83,7.83,0,0,1,4.64-1.69,6.83,6.83,0,0,1,5.58,2.54,10.59,10.59,0,0,1,2.06,6.86v15.43h-9.13V415.78a4.5,4.5,0,0,0-.33-2.1,1.4,1.4,0,0,0-1.28-.53c-1,0-1.54.75-1.54,2.27v13.23H708V395.32Z" transform="translate(-550.68 -334.82)"/><path class="cls-1" d="M748.23,419.52V429a12,12,0,0,1-2.05.19,12.51,12.51,0,0,1-9.16-3.61,12.73,12.73,0,0,1,9-21.73q5.9,0,9.31,3.46t3.41,9.43v11.94h-9.14V417.37a4.7,4.7,0,0,0-.94-3.08,3.08,3.08,0,0,0-2.52-1.14,3.6,3.6,0,0,0-2.59,6,3.22,3.22,0,0,0,2.42,1A4.2,4.2,0,0,0,748.23,419.52Z" transform="translate(-550.68 -334.82)"/><path class="cls-1" d="M785.8,428.65h-9.13V414.9c0-1.39-.58-2.1-1.73-2.1s-1.71.71-1.71,2.1v13.75H764.1V415.08a11.08,11.08,0,0,1,3.15-8,11,11,0,0,1,16.09.52q2.46,3,2.46,8.23Z" transform="translate(-550.68 -334.82)"/></svg>