<svg id="Layer_1" data-name="Layer 1" xmlns="http://www.w3.org/2000/svg" viewBox="0 0 273.21 325.26"><defs><style>.cls-1,.cls-2{fill:#004040;}.cls-1{stroke:#004040;stroke-miterlimit:10;}</style></defs><title>jonathanE</title><path class="cls-1" d="M587.2,464.35a19.29,19.29,0,0,1-5,11.56c-1,1-2.1,1.89-3.05,2.94a12.48,12.48,0,0,0-3.15,8.82c-.74.34-2.3.94-3,1.32-6.08,3.18-10.85,9.25-11.39,16.09A17,17,0,0,0,549,513.72a10.33,10.33,0,0,0-.84,2.07c-1.81,6.48,5.36,11.8,10.39,14.33a58.06,58.06,0,0,0,12.71,4.24c35.59,8.62,73,11.2,109.54,11.76A566.79,566.79,0,0,0,773.44,540l3.81-.59c15.34-2.4,31.51-5.91,42.65-16.73,0-2.1.14-3.7.12-5.81a14.35,14.35,0,0,0-.19-3.83,6.57,6.57,0,0,0-.86-1.41,21.48,21.48,0,0,0-11.77-7.75,21.9,21.9,0,0,0-14-16.06,4.79,4.79,0,0,0-3.49-3.94,9,9,0,0,0-2.86-4.09c-.64-.41-1.33-.74-2-1.18a10.43,10.43,0,0,1-1.61-1.44A27.91,27.91,0,0,1,777,465.69" transform="translate(-547.34 -221.43)"/><path class="cls-2" d="M688.29,477.75a423.85,423.85,0,0,1-99.35-12.11,4.36,4.36,0,0,1-2.34-1.56l-21.47-28.25a4.33,4.33,0,0,1,1-6.21l19.37-12.91a5.26,5.26,0,0,0,1.16-1,95.9,95.9,0,0,1,9.6-10.59,5.39,5.39,0,0,0,1.81-3.37c1.14-8.44,16.54-38.55,21.24-47.58a4.3,4.3,0,0,1,3.83-2.32H745.29A4.35,4.35,0,0,1,749,354c16.69,29.34,21.91,44.86,23.11,48.92a5.4,5.4,0,0,0,1.15,2c2.39,2.7,6.46,8.26,8.1,10.52a5.09,5.09,0,0,0,1.47,1.38l18.9,11.94a4.3,4.3,0,0,1,2,4.29,4.22,4.22,0,0,1-3.08,3.51l-.1,0a5.37,5.37,0,0,0-3.39,2.62c-3.54,6.41-16,20.85-19.68,25.12a4.35,4.35,0,0,1-2,1.3c-25.82,8-55.17,12.12-87.21,12.12Z" transform="translate(-547.34 -221.43)"/><path class="cls-2" d="M745.29,352.3a3.8,3.8,0,0,1,3.31,1.93c16.67,29.3,21.88,44.77,23.07,48.81a5.86,5.86,0,0,0,1.25,2.22c2.46,2.76,6.8,8.72,8.07,10.48a5.94,5.94,0,0,0,1.61,1.51l18.9,11.93a3.79,3.79,0,0,1,1.74,3.8,3.67,3.67,0,0,1-2.71,3.1l-.14,0a5.86,5.86,0,0,0-3.66,2.84c-3.51,6.38-15.9,20.78-19.62,25a3.84,3.84,0,0,1-1.76,1.15c-25.77,8-55.07,12.1-87.06,12.1a423.28,423.28,0,0,1-99.22-12.09,3.84,3.84,0,0,1-2.07-1.39l-21.47-28.24a3.81,3.81,0,0,1,.92-5.49l19.37-12.91a6,6,0,0,0,1.27-1.16c5.42-6.6,8.18-9.36,9.53-10.52a5.88,5.88,0,0,0,2-3.68c1.12-8.36,16.5-38.41,21.18-47.42a3.82,3.82,0,0,1,3.39-2.05H745.29m0-1H623.18a4.83,4.83,0,0,0-4.28,2.59c-4.7,9.05-20.13,39.21-21.29,47.75a4.79,4.79,0,0,1-1.64,3.05c-1.59,1.36-4.47,4.34-9.65,10.65a5.39,5.39,0,0,1-1.06,1L565.9,429.21a4.82,4.82,0,0,0-1.17,6.92l21.47,28.25a4.83,4.83,0,0,0,2.62,1.75,422.77,422.77,0,0,0,99.47,12.12c27.7,0,58.15-3,87.36-12.14a4.84,4.84,0,0,0,2.21-1.45c3.51-4,16.16-18.71,19.75-25.21a4.85,4.85,0,0,1,3-2.36l.16,0a4.82,4.82,0,0,0,1.24-8.71L783.13,416.4a4.8,4.8,0,0,1-1.33-1.25c-1.48-2-5.68-7.8-8.13-10.56a5,5,0,0,1-1-1.83c-1.17-4-6.38-19.54-23.16-49a4.82,4.82,0,0,0-4.18-2.43Z" transform="translate(-547.34 -221.43)"/><polygon class="cls-1" points="62.38 119.78 62.74 129.87 210.78 129.87 210.78 119.78 62.38 119.78"/><path class="cls-1" d="M644.4,271.23s51.14-8.08,80.74,0c0,0,36.34,35,37.69,70H606.72S618.83,288.72,644.4,271.23Z" transform="translate(-547.34 -221.43)"/><path class="cls-2" d="M705,267.76s4-3.31,5.38-6.62-1.34-5-1.34-6.61,4-31.44,4-31.44l-6.6,32.49a5.23,5.23,0,0,1-.41,1.23c-.9,1.9-3.82,7.1-6.06.65a4.19,4.19,0,0,1-.07-2.43l9.11-33.6s-9.43,31.44-17.5,36.41c0,0-1.35,0,0,8.27Z" transform="translate(-547.34 -221.43)"/><path class="cls-2" d="M674.2,267.31l-10.72,1s-7-5.5-7-7.16,1.35-3.3,1.35-8.27-5.39-31.44-5.39-31.44l9.3,34.29a4.54,4.54,0,0,0,.36.91c1.14,2.1,5.94,10.42,5.26-.66a12,12,0,0,0-.46-2.61l-9.07-30.27,10.5,27.44a9.23,9.23,0,0,0,.7,1.45c.87,1.45,2.91,4.6,4.94,5.86C676.7,259.49,674.2,267.31,674.2,267.31Z" transform="translate(-547.34 -221.43)"/><path class="cls-2" d="M732.41,261.72l.14-.25,1-2,1.52-3,1.81-3.56,1.94-3.83,1.94-3.8,1.77-3.48L744,239l1-1.93.36-.71-.2.31-1,1.5-1.57,2.47-2,3.12-2.23,3.48-2.26,3.54-2.11,3.3-1.76,2.76L731,258.72a5,5,0,0,1-1.47,1.73,1.12,1.12,0,0,1-.55.18.56.56,0,0,1-.5-.29.86.86,0,0,1-.08-.55,2.66,2.66,0,0,1,.16-.55l.09-.22a14.14,14.14,0,0,1,1-1.95l1-1.73,1.47-2.51,1.81-3.08,2-3.47,2.14-3.64,2.13-3.63,2-3.42,1.76-3,1.4-2.39.93-1.58.34-.57s-16.15,23.17-18.84,26.48l-5.39,6.61c-4,5-3,8.32-3,8.32l5.67,1.61a1.76,1.76,0,0,0,.94-.58,15,15,0,0,0,1.25-1.37c1-1.17,1.88-2.43,2.76-3.69Z" transform="translate(-547.34 -221.43)"/><path class="cls-2" d="M647.61,270.5s-.52-7.7-5.9-12.66c0,0-17.5-23.17-20.19-28.13L641,260.32s4,6.62-1.34,1.65-18.84-29.78-18.84-29.78l14.38,27.33a11.53,11.53,0,0,1,.62,1.39c.58,1.51,2.52,5.73,7.87,11C643.72,271.9,644.77,270.76,647.61,270.5Z" transform="translate(-547.34 -221.43)"/><path class="cls-1" d="M647.76,270.25l-1-7.52a6,6,0,0,1,1-4.24l7.87-10.89a4.9,4.9,0,0,1,3.94-2.17h51a3.39,3.39,0,0,1,2.85,1.75l5.74,9.41a7.76,7.76,0,0,1,1,4.65l-.72,8.23S692.17,262,647.76,270.25Z" transform="translate(-547.34 -221.43)"/></svg>