<svg id="Layer_1" data-name="Layer 1" xmlns="http://www.w3.org/2000/svg" viewBox="0 0 526.67 70.97"><defs><style>.cls-1{fill:none;stroke:#fff;stroke-miterlimit:10;}</style></defs><title>title</title><path class="cls-1" d="M736.39,533.26v14.85H722.15a7.92,7.92,0,0,0-4.1.78,2.88,2.88,0,0,0-1.21,2.63q0,2.1,1.23,2.76c.83.44,2.51.66,5,.66h14.66v19H720.65q-12.09,0-18.48-5.24t-6.39-15.17V527.45q0-9.57,6-14.84t17-5.28h19v19.15H723.87c-3.76,0-5.64,1.1-5.64,3.32a2.84,2.84,0,0,0,1.35,2.71,10.64,10.64,0,0,0,4.78.75Z" transform="translate(-695.28 -505.17)"/><path class="cls-1" d="M762.55,574V530.72q0-11.37,7.49-18.21t20-6.84q12.4,0,19,6.64t6.58,19.1V574H793.75V531.41q0-6.1-4.78-6.11-4.62,0-4.62,6.11V574Z" transform="translate(-695.28 -505.17)"/><path class="cls-1" d="M881.68,533.26v14.85H867.44a8,8,0,0,0-4.11.78,2.9,2.9,0,0,0-1.2,2.63q0,2.1,1.23,2.76c.82.44,2.51.66,5,.66h14.66v19H865.94q-12.09,0-18.48-5.24t-6.39-15.17V527.45q0-9.57,6-14.84t17-5.28h19v19.15H869.16c-3.76,0-5.64,1.1-5.64,3.32a2.86,2.86,0,0,0,1.34,2.71,10.7,10.7,0,0,0,4.78.75Z" transform="translate(-695.28 -505.17)"/><path class="cls-1" d="M931.14,525.25V574h-21.8V507.33h28q12.78,0,19.82,5.77A20.25,20.25,0,0,1,965,529.45q0,10.11-9.72,17L967.83,574H945L934.37,552.5V535.36h1.72q6.87,0,6.87-5.37,0-4.74-8-4.74Z" transform="translate(-695.28 -505.17)"/><path class="cls-1" d="M1019.93,536.63h20.78q6.72,7.57,6.72,16a20.62,20.62,0,0,1-7.87,16.4q-7.87,6.64-19.36,6.64a34.67,34.67,0,0,1-25.35-10.3,34,34,0,0,1-10.42-25.1,32.31,32.31,0,0,1,10.6-24.7q10.61-9.87,26.51-9.87a41.63,41.63,0,0,1,12,2V527.5a24.34,24.34,0,0,0-9.4-2.2q-7.68,0-12.54,4.35a14.44,14.44,0,0,0-4.86,11.28q0,7.08,4.51,11.23t12.19,4.15q4.89,0,4.89-2.59c0-1.3-1.07-2-3.22-2h-5.21Z" transform="translate(-695.28 -505.17)"/><path class="cls-1" d="M1091.85,507.33V574H1070V507.33Z" transform="translate(-695.28 -505.17)"/><path class="cls-1" d="M1159.36,533.26v14.85h-14.23a8,8,0,0,0-4.11.78,2.88,2.88,0,0,0-1.21,2.63c0,1.4.41,2.32,1.24,2.76s2.5.66,5,.66h14.66v19h-17.14q-12.07,0-18.47-5.24t-6.39-15.17V527.45q0-9.57,6-14.84t17-5.28h19v19.15h-13.91c-3.76,0-5.64,1.1-5.64,3.32a2.84,2.84,0,0,0,1.34,2.71,10.67,10.67,0,0,0,4.78.75Z" transform="translate(-695.28 -505.17)"/><path class="cls-1" d="M1221.45,507v19a13.35,13.35,0,0,0-3.65-.74,6,6,0,0,0-4.24,1.66,5.27,5.27,0,0,0-1.78,4,10.36,10.36,0,0,0,1.94,5.08l1.66,2.63q4.51,7.13,4.51,13.77a21.18,21.18,0,0,1-7.6,16.46,27,27,0,0,1-18.55,6.73,26.41,26.41,0,0,1-10.42-2.19V554.16a11.28,11.28,0,0,0,5.53,1.81,7.49,7.49,0,0,0,4.75-1.49,4.57,4.57,0,0,0,1.91-3.74c0-1-1-3.11-3.06-6.39a29.26,29.26,0,0,1-4.89-15.63,21.33,21.33,0,0,1,7.39-16.23,25.08,25.08,0,0,1,17.64-6.82A29.42,29.42,0,0,1,1221.45,507Z" transform="translate(-695.28 -505.17)"/></svg>