<svg id="Layer_1" data-name="Layer 1" xmlns="http://www.w3.org/2000/svg" viewBox="0 0 552.68 536.68"><defs><style>.cls-1{fill:none;stroke:#066;stroke-miterlimit:10;}</style></defs><title>vinceE</title><path class="cls-1" d="M652.7,496.5c2.94-1.08,6.19-.19,9.32,0,5.51.4,11.43-1.62,14.6-6.14,4-5.65,2.8-13.42,5.41-19.8,2.11-5.17,6.6-9.18,8.23-14.52.68-2.23.82-4.6,1.58-6.81,1.46-4.24,5.07-7.53,6.22-11.86,1.07-4-.13-8.49,1.37-12.38.6-1.55,1.61-2.92,2.28-4.44,1.27-2.89,1.29-6.16,1.29-9.32,0-12.24-.11-24.95-5.36-36-2.15-4.53-5.66-9.13-10.46-11-5.49-2.2-11,.33-16.77-1.79-6.33-2.33-13.11-5.49-20-5-7.83.56-15.05,4.39-22.27,7.11-14.49,5.43-30.34,6.69-44.6,12.68-3.1,1.31-6.2,2.9-8.35,5.48-3.58,4.28-3.86,10.4-3.21,15.94.45,3.82,1.25,7.76.12,11.43-1,3.14-3.31,5.92-3.31,9.2,0,4.09,3.56,7.14,6.56,9.91a64.8,64.8,0,0,1,13.83,18.33c6,11.8,8.32,25.46,16.22,36.05,3.88,5.21,7.55,10.27,11.17,15.66,2.24,3.34,5,6.71,9.07,7.68C636.45,509.46,643.85,499.77,652.7,496.5Z" transform="translate(-568.32 -159.5)"/><path class="cls-1" d="M705.4,541.14c-.78-.53-1.54-1.08-2.28-1.66-4.58-3.64-6.17-9.39-10.28-13.37-3.69-3.58-9.25-4.72-14.35-4s-9.83,3-14.3,5.52c-2.13,1.21-4.3,2.5-6.72,2.85a49.35,49.35,0,0,1-5.44,0c-4.7.16-9,2.55-13.09,4.87-5.6,3.18-11.59,6.06-17,9.63-4.62,3.08-7.28,8.59-8.81,14-.73,2.58-1.07,5.27-2.12,7.73a52.39,52.39,0,0,1-3.85,6.48,31.35,31.35,0,0,0-4.05,20.61c1.05,7,5,11.7,8.06,17.88s4.19,13.34,7.12,19.68c7.39,16,24.72,24.63,40.79,32l17.23,7.89a47.94,47.94,0,0,0,5.92,2.4,39.7,39.7,0,0,1,4.68,1.47,24,24,0,0,1,4.67,3,136.68,136.68,0,0,0,24.76,15c2.73,1.27,5.59,2.47,8.6,2.56,6.86.2,12.48-5.25,19-7.24,5.25-1.6,10.87-.93,16.32-.31,3.09.35,6.3.66,9.23-.36,2.59-.91,4.71-2.78,6.74-4.62,4.92-4.44,9.52-9.32,14.59-13.57a25.55,25.55,0,0,0,4.44-4.42c3.43-4.43,8.16-6.86,9.48-12.59a6.73,6.73,0,0,0,0-4.07,7.13,7.13,0,0,0-1-1.68c-1.35-1.78-7.66-7.27-7.66-9.55-3-3.52-5.91-7-9-10.49-9.4-10.53-15.9-22.64-25-33.19-4.13-4.78-6.17-11.74-11.85-14.5-6.17-3-9-7.67-13.41-12.89A98.52,98.52,0,0,0,721,550.61C716.15,547,710.38,544.51,705.4,541.14Z" transform="translate(-568.32 -159.5)"/><path class="cls-1" d="M967,613.4a5.12,5.12,0,0,0-1.6-1.17c-.78-.37-1.64-.53-2.4-1a14.31,14.31,0,0,1-2.55-2.27c-3.21-3-6.65-2.31-10.47-2.08-4.78.29-9.64,0-14.43,0a103,103,0,0,0-12.91.55c-4,.5-8,1.46-12,1.32s-7.83-1.37-11.78-1.71c-5.29-.45-10.58.68-15.89,1.06-9.18.66-18.4-1-27.6-.41s-18.92,3.72-24.54,11.76a45,45,0,0,0-4.8,9.89q-2.68,7-5,14.22c-1.4,4.3-2.72,8.86-2,13.37,2.87,18.38,24.73,13.17,36.47,12.87,2.52-.06,5.26,0,7.28,1.61,1.49,1.21,2.34,3.12,3.47,4.74,3.2,4.6,11.07,1.68,15.42,1.61q11.4-.18,22.79-.39l27-.46c6.61-.11,18.12,2.25,23.92-1.84a26.82,26.82,0,0,1,2.91-2.14c5-2.53,5.78-1.3,8.31-7,1.95-4.4,5-7.94,6.95-12.28s.53-7.51-1.36-11.51c-2.14-4.52-3.5-8.86-3.28-14.09.13-2.92.69-5.84.46-8.75A10,10,0,0,0,967,613.4Z" transform="translate(-568.32 -159.5)"/><path class="cls-1" d="M1063.37,449.46c-5.47-2.83-11.9-5.71-17.53-3.22a21,21,0,0,0-4.42,3l-20.66,16.59c-2.13,1.71-4.32,3.49-5.56,5.93-1,1.86-1.35,4.09-2.86,5.53-.84.8-1.93,1.27-2.83,2-2.81,2.28-3.08,6.38-4.43,9.74-2,5-6.53,8.49-9.06,13.21-1.88,3.49-2.58,7.52-4.39,11.05-2.23,4.35-6.23,8.45-5.42,13.27.65,3.88,3.83,7.11,3.83,11l0,16.84c0,7.35-.86,17.44,2.41,24.12,1.32,2.7,3,5.24,3.86,8.12a28.64,28.64,0,0,1,.71,3.67c1.76,11.82,3.23,20.2,12.94,28.36a83.68,83.68,0,0,1,7.3,6.24c3.11,3.3,5.2,7.43,8.1,10.91s8.76,9.83,12.81,7.79c2.8-1.41,6.28,1.13,9.25.13a7.15,7.15,0,0,0,3-2.4c3-3.59,5.2-7.9,8.7-11a59.48,59.48,0,0,0,4.89-4.18,21.68,21.68,0,0,0,3.51-6.29q4.46-10.71,8-21.76c1.52-4.68,3-9.61,6.48-13.12,1.43-1.45,3.15-2.62,4.35-4.26,2.56-3.52,2.2-8.49,4.56-12.14,1.82-2.82,5.1-4.57,6.49-7.63,2.54-5.59-2.07-13.49,2.37-17.73s5.55-10.51,5.94-16.64-.26-12.31.46-18.41c.9-7.66,3.93-14.92,5.12-22.54,1.08-6.92.35-14.77-4.51-20.18-2.2-2.45-4.73-3-7.52-4.71-3.23-1.93-5.87-4.7-9.33-6.29C1083.17,451.31,1067.18,456.37,1063.37,449.46Z" transform="translate(-568.32 -159.5)"/><path class="cls-1" d="M1113.67,329.56c-4.51-6.58-9.3-13.42-16.37-17.11a39.56,39.56,0,0,1-5.6-3,22.11,22.11,0,0,1-3.39-3.38l-7-8.08c-2.76-3.17-5.79-6.52-9.89-7.45a27.78,27.78,0,0,1-3.65-.75c-3.51-1.29-5.23-5.65-8.8-6.77-2.37-.75-5.08.12-7.37-.84a25.79,25.79,0,0,1-3.45-2.29c-4.26-2.64-10.17-.87-14.49-3.41-1.7-1-3-2.58-4.59-3.72a16.44,16.44,0,0,0-6.67-2.52,35.76,35.76,0,0,0-22.81,3.46c-2.08,1.09-4.44,2.42-6.63,1.58-1.19-.46-2.08-1.5-3.27-2-3.06-1.21-6,1.74-9.07,2.94-4.23,1.65-9.19-.11-13.44,1.48-4.44,1.66-7,6.51-11.25,8.53-1.21.57-2.53.9-3.72,1.52a16.62,16.62,0,0,0-3.47,2.63L927,310.08a39.46,39.46,0,0,0-5,5.14,20.17,20.17,0,0,0-3.39,17.22c1.27,4.67,2,9.73,3.13,14.42.47,1.89,1,3.93,2.56,5.12.84.64,1.88,1,2.74,1.59a10,10,0,0,1,2.63,3.61,95.79,95.79,0,0,0,10.18,15.36,13.53,13.53,0,0,0,2.64,2.65,16.78,16.78,0,0,0,4.54,1.87,50.67,50.67,0,0,1,22.42,14.62,9.9,9.9,0,0,0,3.61,3.06c1.51.58,3.22.31,4.76.8,3.63,1.14,5.08,5.94,8.68,7.17,1.87.64,3.92.16,5.9.19,7.81.11,12.9,7.34,18.69,11.52,3.84,2.77,8.11,2.57,12.6,2.35a24.26,24.26,0,0,1,12.53,2.2c5.33,2.36,11.85-.61,17.22,1.62a17.65,17.65,0,0,0,3.35,1.38,2.72,2.72,0,0,0,3.08-1.29c3.54,2.64,9.41-.14,12.46-3.34s5.23-7.36,9-9.6c1.84-1.08,4-1.65,5.71-2.87,3.62-2.53,5.2-7.5,9.2-9.35,1.92-.89,4.14-.92,6-1.82,4.11-1.92,5.78-7.3,10-9,1.83-.75,3.93-.7,5.7-1.59s2.93-3.5,1.44-4.8c-5.67-4.92,1.91-16.14,1.07-23.6-.3-2.72-1.31-5.33-1.46-8.05-.17-3.11.79-6.2.65-9.3S1116.77,329.84,1113.67,329.56Z" transform="translate(-568.32 -159.5)"/><path class="cls-1" d="M659.49,269.41c-3.14-3.61,3.35-10.12,0-13.59,4.64-2.17,5.78-8.13,6.34-13.22l1.39-12.8a10,10,0,0,1,.86-3.6,7.5,7.5,0,0,1,1.73-2.08,15.43,15.43,0,0,1,9.21-3.84,20.39,20.39,0,0,1,13.66-14c3.77-1.12,8-1.19,11.16-3.52,2-1.51,3.76-4,6.3-4,1.29,0,2.73.66,3.77-.1s.89-2.4,1.74-3.35c1-1.16,2.84-.81,4.37-.79,6.72.05,10.75-7.65,17-10.17,3.31-1.34,7.08-1.12,10.45-2.31s6.48-3.89,10.14-4.19c5-.41,10.31,3.65,14.65,1.15,1-.58,1.83-1.48,2.89-2a8.53,8.53,0,0,1,4-.46c6,.25,12.76-.38,18.61.79,2.24.45,4.43-.77,6.42-1.88,4.09-2.3,8.31-4.34,12.53-6.38l3.78-1.82a29.41,29.41,0,0,1,7.24-2.74c1.72-.32,3.92-.44,5.46.4l7.09-.62a1.67,1.67,0,0,0,.85-.23c.39-.27.47-.79.63-1.23.88-2.45,4.12-2.87,6.73-2.86,2.29,0,5,.25,6.14,2.25a6.64,6.64,0,0,1,.61,2l2.23,11.28a58.69,58.69,0,0,0,3.24,10.17c3.82,1.73,9.33,1.28,11,5.12.7,1.56.45,3.36.75,5,.43,2.42,2,4.47,2.87,6.76,2.64,6.88-1,15.14,2.19,21.79.65,1.37,1.57,2.6,2.21,4a22.41,22.41,0,0,1,1.56,6.54c.73,5.52,1.8,11.85,2.39,17.39.38,3.5,3.65,5.72,4.61,9.11.87,3.07.57,6.28.32,9.41-.41,5.23,2.86,10.27,3.83,15.29,1.38,7.09-1,14.53.52,21.58.89,4.11,4.24,9.58,2.19,13.25a15.19,15.19,0,0,0-1.81,9.22,8.21,8.21,0,0,1,.12,2.47c-.36,2-2.46,3.17-4.37,3.9s-4.08,1.47-5,3.29A10,10,0,0,1,883,342c-.91,1-2.5,1-3.87,1.16-3.07.45-5.57,2.62-8.36,4s-7.54,2-9.3-.59c-3.3,5-10,5.26-15.29,5.94-6.79.87-11.53,5.32-18.77,5.77l-25.78,1.62c-6.94.43-15.16-.72-21.85,1-5.76,1.51-9.21-.26-14.29-2.75-5.43-2.66-9.76-1.21-15.53-1.91-4.19-.51-7.17-1.13-10.48-4-2.27-2-3.14-5.4-5.53-7.05-1.56-1.08-3.6-1.07-5.44-1.53-5.5-1.39-4.12-5.8-10.27-4-3.44,1-7.15-3-5.88-6.36-1.27,2.4-5.9-2.5-8.16-1-.71.47-1,1.4-1.67,1.91-1.69,1.26-3.69-.42-5.42-.49-2.85-.12-5.54.86-8.5.46a4.43,4.43,0,0,1-2.75-1.11,5.49,5.49,0,0,1-1-2.84c-.53-2.95-1.54-7.12-3.45-9.52s-5.33-3.4-7.21-6.07c-2.2-3.15-1.9-7.33-1.85-11.17s-.54-8.24-3.71-10.42c-1.12-.77-2.52-1.22-3.32-2.32-1-1.35-.69-3.18-.72-4.84C664.48,279.31,659.36,275.94,659.49,269.41Z" transform="translate(-568.32 -159.5)"/><path class="cls-1" d="M723.46,453.59c3.19-7.55,10.63-12.31,15.61-18.81,3.16-4.13,5.3-8.93,7.68-13.56,5.82-11.36,13.86-22.47,25.68-27.29A66.3,66.3,0,0,1,782.64,391a100.08,100.08,0,0,1,9.84-2c10.16-1.33,21.23,1.16,30.32,5.89,6.84,3.57,15.41-1.47,22.83.65,2.22.64,4.26,1.9,6.55,2.21,2.55.35,5.18-.51,7.7,0,3.89.84,7.72,5.34,11.62,4.55,2.89-.59,5.67,1.25,8,3l18.8,13.8c2,1.46,4,3,5.26,5.14.64,1.14,1.08,2.49,2.16,3.25s2.34.71,3.48,1.19c3.39,1.42,4,6.37,7.25,8.09,2.27,1.2,5,.44,7.58.62s5.48,2.52,4.37,4.83c5.87-1.72,12.87,1.57,18-1.76a21.77,21.77,0,0,1,3-2c2.69-1.16,5.71.39,8.22,1.9s4.88,3,6.23,5.41a15.53,15.53,0,0,1,1.28,3.51,156.23,156.23,0,0,1,5.38,41c0,5.64-.41,11.5-3.13,16.43-3,5.5-7.38,9.76-10.21,15.48-1.56,3.13-3.8,6.33-7.19,7.16a17.16,17.16,0,0,1-4.3.22c-6.51-.1-11.21,1.48-16,5.78-3.55,3.16-6.74,7.36-11.71,8.28-1.93.35-4,.13-5.87.57a21,21,0,0,0-5.56,2.63,55.11,55.11,0,0,1-22,7.05,21.12,21.12,0,0,0-6.72,1.26c-1.51.68-2.81,1.78-4.32,2.46a17.16,17.16,0,0,1-5.78,1.17c-12.8,1.07-25.66,1.52-38.5,1.36-5.06-.06-10.28-.26-14.87-2.38a10.51,10.51,0,0,0-3.54-1.26,8.49,8.49,0,0,0-3,.55A60.12,60.12,0,0,1,785.6,560a44.62,44.62,0,0,1-15.33-4.07c-6.73-3.16-13.86-7.41-19.2-12.6-1.9-1.84-3.72-3.9-6.18-4.89-1.17-.47-2.43-.68-3.6-1.17-5.59-2.39-6.6-10.12-11.35-13.92-1.46-1.18-3.27-2-4.49-3.38a11.35,11.35,0,0,1-2-4.43c-2.17-7.66-3.31-15.94-.9-23.53,1.08-3.36,2.85-6.73,2.31-10.22s-3.34-6.32-4.21-9.78C719.07,465.86,721,459.41,723.46,453.59Z" transform="translate(-568.32 -159.5)"/></svg>