<svg id="Layer_1" data-name="Layer 1" xmlns="http://www.w3.org/2000/svg" viewBox="0 0 1018.14 114.24"><defs><style>.cls-1{fill:#004040;stroke:#004040;stroke-miterlimit:10;}</style></defs><title>vincetitle</title><path class="cls-1" d="M560.72,488.9l-44,106.73L473,488.9h34.76L517,520.41l10.2-31.51Z" transform="translate(-472.26 -482.71)"/><path class="cls-1" d="M592.89,516.12v73.74H565.23V516.12Zm-13.76-32.91a13.55,13.55,0,0,1,9.73,4,13.07,13.07,0,0,1,.22,18.82,15.22,15.22,0,0,1-19.89,0,13.07,13.07,0,0,1,.22-18.82A13.54,13.54,0,0,1,579.13,483.21Z" transform="translate(-472.26 -482.71)"/><path class="cls-1" d="M674.92,589.86H647.25V548.22q0-6.36-5.25-6.36t-5.18,6.36v41.64H609.16V548.74q0-14.43,9.54-24.3a31.27,31.27,0,0,1,23.38-9.87q15.82,0,25.36,11.46,7.47,9,7.48,24.93Z" transform="translate(-472.26 -482.71)"/><path class="cls-1" d="M736.3,555.91l27.44-1q-1.18,16-11.91,26.25a36.29,36.29,0,0,1-26.1,10.28,37.19,37.19,0,0,1-27.48-11.31A37.93,37.93,0,0,1,687,552.36a36.08,36.08,0,0,1,11.32-26.7,38.34,38.34,0,0,1,64.72,19.9l-28,1a11.13,11.13,0,0,0-9.18-4.73,10.38,10.38,0,0,0-7.76,3.11,10.76,10.76,0,0,0-3,7.84,11,11,0,0,0,3.21,8.06,10.83,10.83,0,0,0,8,3.25Q733.34,564.12,736.3,555.91Z" transform="translate(-472.26 -482.71)"/><path class="cls-1" d="M848.28,557.47H806.34a20.37,20.37,0,0,1-1-5.85,20.61,20.61,0,0,1,1.33-7.24h14.06q-1.49-8.22-9.25-8.21a10,10,0,0,0-8.43,4.4q-3.26,4.39-3.25,11.27,0,7.18,3.14,11.62a9.65,9.65,0,0,0,8.25,4.43q4.14,0,8-4.14L835,582.69a38.69,38.69,0,0,1-24.48,8.65q-16.43,0-27.59-11T771.73,553A37,37,0,0,1,783,525.66q11.28-11.16,27.7-11.17,16,0,27,10.91t10.91,26.89C848.58,553.37,848.48,555.1,848.28,557.47Z" transform="translate(-472.26 -482.71)"/><path class="cls-1" d="M897.61,589.86V517.08q0-13.53,8.21-22.11t21.3-8.58q15.54,0,23.89,14.27,5.12-7.68,11-11t14.42-3.29q13.61,0,20.86,8.58t7.25,24.7v70.19h-30V524.18q0-4.87-.78-6.47a3.14,3.14,0,0,0-3.14-1.59q-4.44,0-4.44,7.55v66.19h-30V524.18c0-3.2-.27-5.35-.81-6.43a3.21,3.21,0,0,0-3.18-1.63q-4.44,0-4.44,8.06v65.68Z" transform="translate(-472.26 -482.71)"/><path class="cls-1" d="M1065.88,555.91l27.43-1q-1.17,16-11.9,26.25a36.32,36.32,0,0,1-26.11,10.28,37.19,37.19,0,0,1-27.48-11.31,37.92,37.92,0,0,1-11.2-27.74,36.07,36.07,0,0,1,11.31-26.7,38.34,38.34,0,0,1,64.72,19.9l-28,1a11.12,11.12,0,0,0-9.17-4.73,10.39,10.39,0,0,0-7.77,3.11,10.76,10.76,0,0,0-3,7.84,11,11,0,0,0,3.22,8.06,10.79,10.79,0,0,0,8,3.25Q1062.91,564.12,1065.88,555.91Z" transform="translate(-472.26 -482.71)"/><path class="cls-1" d="M1133,488.9v101h-27.66v-101Zm42.38,27.22L1161.88,543,1182,589.86h-30.62l-17.3-48.15,12.57-25.59Z" transform="translate(-472.26 -482.71)"/><path class="cls-1" d="M1259.51,557.47h-41.94a19.4,19.4,0,0,1,.37-13.09h14q-1.48-8.22-9.24-8.21a10,10,0,0,0-8.43,4.4q-3.25,4.39-3.26,11.27,0,7.18,3.14,11.62a9.67,9.67,0,0,0,8.25,4.43q4.14,0,8-4.14l15.75,18.94a38.67,38.67,0,0,1-24.48,8.65q-16.41,0-27.59-11T1183,553a37,37,0,0,1,11.28-27.37q11.27-11.16,27.69-11.17,16,0,27,10.91t10.91,26.89C1259.8,553.37,1259.7,555.1,1259.51,557.47Z" transform="translate(-472.26 -482.71)"/><path class="cls-1" d="M1298.63,488.9v101H1271v-101Z" transform="translate(-472.26 -482.71)"/><path class="cls-1" d="M1370.23,516.12l-34.47,76.63-34-76.63h26.4L1336,536l8.58-19.9Z" transform="translate(-472.26 -482.71)"/><path class="cls-1" d="M1400.85,516.12v73.74h-27.67V516.12Zm-13.76-32.91a13.52,13.52,0,0,1,9.72,4A13.08,13.08,0,0,1,1397,506a15.23,15.23,0,0,1-19.9,0,13.09,13.09,0,0,1,.22-18.82A13.55,13.55,0,0,1,1387.09,483.21Z" transform="translate(-472.26 -482.71)"/><path class="cls-1" d="M1489.6,557.47h-41.94a20.37,20.37,0,0,1-1-5.85,20.61,20.61,0,0,1,1.33-7.24h14.06q-1.48-8.22-9.25-8.21a10,10,0,0,0-8.43,4.4q-3.26,4.39-3.25,11.27,0,7.18,3.14,11.62a9.64,9.64,0,0,0,8.24,4.43q4.15,0,8-4.14l15.76,18.94a38.69,38.69,0,0,1-24.48,8.65q-16.43,0-27.59-11T1413.05,553a37,37,0,0,1,11.28-27.37q11.28-11.16,27.7-11.17,16,0,27,10.91t10.91,26.89C1489.9,553.37,1489.8,555.1,1489.6,557.47Z" transform="translate(-472.26 -482.71)"/></svg>